<?xml version="1.0" encoding="iso-8859-1"?>
<!-- Generator: Adobe Illustrator 19.0.0, SVG Export Plug-In . SVG Version: 6.00 Build 0)  -->
<svg version="1.1" id="Layer_1" xmlns="http://www.w3.org/2000/svg" xmlns:xlink="http://www.w3.org/1999/xlink" x="0px" y="0px"
	 viewBox="0 0 512 512" style="enable-background:new 0 0 512 512;" xml:space="preserve">
<g>
	<g>
		<path d="M425.852,218.547l-22.781-0.409c-0.052,0-0.104-0.001-0.156-0.001c-4.624,0-8.413,3.707-8.497,8.349
			c-0.084,4.695,3.653,8.568,8.347,8.653l22.781,0.409c0.052,0,0.104,0.001,0.156,0.001c4.624,0,8.413-3.707,8.497-8.349
			C434.283,222.505,430.546,218.632,425.852,218.547z"/>
	</g>
</g>
<g>
	<g>
		<path d="M501.49,336.875c-14.567,0-22.105,7.301-28.163,13.169c-5.21,5.045-8.652,8.379-16.333,8.379
			c-7.682,0-11.123-3.334-16.334-8.379c-6.059-5.867-13.598-13.169-28.165-13.169s-22.106,7.301-28.164,13.168
			c-5.211,5.047-8.652,8.38-16.334,8.38c-5.062,0-7.995-1.534-9.984-2.87c-3.897-2.617-9.179-1.581-11.798,2.316
			c-2.618,3.897-1.582,9.179,2.316,11.798c5.769,3.876,12.136,5.76,19.466,5.76c14.567,0,22.106-7.301,28.164-13.168
			c5.211-5.047,8.652-8.38,16.334-8.38c7.683,0,11.125,3.334,16.335,8.38c6.059,5.867,13.597,13.168,28.164,13.168
			c14.567,0,22.105-7.301,28.163-13.169c5.21-5.045,8.652-8.379,16.333-8.379c4.696,0,8.502-3.806,8.502-8.502
			C509.991,340.681,506.186,336.875,501.49,336.875z"/>
	</g>
</g>
<g>
	<g>
		<path d="M336.688,339.294c-4.059-1.628-8.373-2.419-13.19-2.419c-14.566,0-22.104,7.302-28.162,13.169
			c-5.21,5.045-8.651,8.379-16.331,8.379c-7.682,0-11.123-3.334-16.334-8.379c-6.059-5.867-13.598-13.169-28.164-13.169
			s-22.106,7.301-28.164,13.169c-5.21,5.045-8.652,8.379-16.334,8.379c-7.683,0-11.126-3.334-16.337-8.38
			c-6.059-5.867-13.598-13.168-28.165-13.168s-22.106,7.301-28.165,13.168c-5.21,5.047-8.652,8.38-16.335,8.38
			c-7.684,0-11.128-3.334-16.339-8.38c-6.059-5.867-13.599-13.168-28.167-13.168c-14.568,0-22.107,7.301-28.166,13.168
			c-5.211,5.047-8.655,8.38-16.339,8.38c-4.695,0-8.502,3.806-8.502,8.502s3.806,8.502,8.502,8.502
			c14.568,0,22.109-7.301,28.167-13.168c5.211-5.047,8.653-8.38,16.339-8.38c7.685,0,11.128,3.334,16.339,8.38
			c6.059,5.867,13.599,13.168,28.167,13.168c14.567,0,22.106-7.301,28.164-13.168c5.21-5.047,8.652-8.38,16.336-8.38
			c7.683,0,11.125,3.334,16.335,8.38c6.059,5.867,13.598,13.168,28.165,13.168c14.567,0,22.105-7.301,28.164-13.168
			c5.21-5.047,8.652-8.38,16.335-8.38s11.125,3.334,16.335,8.38c6.059,5.867,13.597,13.168,28.164,13.168
			c14.566,0,22.103-7.301,28.161-13.169c5.21-5.045,8.651-8.379,16.332-8.379c2.607,0,4.852,0.392,6.86,1.197
			c4.354,1.748,9.307-0.368,11.055-4.726C343.161,345.992,341.046,341.042,336.688,339.294z"/>
	</g>
</g>
<g>
	<g>
		<path d="M496.687,218.112c0.057-0.101,0.11-0.202,0.161-0.305l0.017-0.034c1.392,0.393,2.762,0.796,4.091,1.212
			c0.846,0.265,1.701,0.391,2.543,0.391c3.617,0,6.972-2.328,8.11-5.962c1.403-4.481-1.092-9.251-5.572-10.654
			c-3.695-1.157-7.62-2.24-11.663-3.218c-0.003-0.001-0.007-0.002-0.01-0.003c-34.44-8.379-80.37-10.37-130.908-8.421
			l-62.821-51.178c-1.262-1.028-2.793-1.672-4.411-1.856c-93.664-10.645-232.036,38.41-237.879,40.504
			c-0.022,0.008-0.041,0.018-0.062,0.025c-0.02,0.008-0.041,0.011-0.06,0.019l-18.137,6.813c-4.395,1.652-6.62,6.553-4.969,10.948
			c1.281,3.411,4.519,5.515,7.96,5.515c0.993,0,2.004-0.176,2.988-0.545l8.461-3.178l5.414,32.466
			c-32.518,6.293-53.029,10.838-53.281,10.893c-2.31,0.513-4.301,1.966-5.495,4.009c-1.194,2.043-1.483,4.491-0.797,6.755
			l16.136,53.25c-1.342,0.304-2.817,0.474-4.505,0.474c-4.695,0-8.502,3.806-8.502,8.502s3.806,8.502,8.502,8.502
			c14.568,0,22.109-7.301,28.167-13.168c5.211-5.047,8.653-8.38,16.339-8.38c7.685,0,11.128,3.334,16.339,8.38
			c6.059,5.867,13.599,13.168,28.167,13.168c14.567,0,22.106-7.301,28.164-13.168c5.21-5.047,8.652-8.38,16.335-8.38
			c4.695,0,8.502-3.806,8.502-8.502s-3.806-8.502-8.502-8.502c-14.567,0-22.106,7.301-28.165,13.168
			c-5.21,5.047-8.652,8.38-16.335,8.38c-7.684,0-11.128-3.334-16.339-8.38c-6.059-5.867-13.599-13.168-28.167-13.168
			c-12.46,0-19.773,5.341-25.421,10.558l-11.767-38.833c12.476-2.647,37.181-7.748,69.148-13.645
			c4.617-0.851,7.669-5.286,6.818-9.903c-0.851-4.618-5.289-7.671-9.903-6.818c-2.974,0.549-5.885,1.09-8.732,1.624l-5.865-35.172
			c12.36-4.147,40.624-13.209,74.842-21.467c12.742-3.075,25.084-5.742,36.977-8.003c3.651,7.974,10.282,24.031,15.057,44.555
			c-28.776,4.115-56.787,8.644-82.905,13.194c-4.626,0.806-7.723,5.209-6.917,9.835c0.805,4.626,5.204,7.717,9.835,6.917
			c214.3-37.331,316.418-32.036,361.887-23.563c-6.98,11.737-29.529,47.548-58.195,71.759c-2.643-0.648-5.567-1.037-8.868-1.037
			c-14.567,0-22.106,7.301-28.164,13.169c-5.211,5.045-8.652,8.379-16.334,8.379c-7.682,0-11.123-3.334-16.334-8.379
			c-6.058-5.867-13.597-13.169-28.164-13.169c-14.566,0-22.104,7.302-28.162,13.169c-5.21,5.045-8.651,8.379-16.331,8.379
			c-7.682,0-11.123-3.334-16.334-8.379c-6.059-5.867-13.598-13.169-28.164-13.169s-22.106,7.301-28.164,13.169
			c-5.21,5.045-8.652,8.379-16.334,8.379c-7.006,0-10.562-2.869-14.821-6.92c-3.401-3.236-8.782-3.104-12.019,0.298
			c-3.236,3.401-3.104,8.783,0.298,12.019c5.901,5.616,13.306,11.606,26.542,11.606c14.567,0,22.105-7.301,28.164-13.168
			c5.21-5.047,8.652-8.38,16.335-8.38c7.683,0,11.125,3.334,16.335,8.38c6.058,5.867,13.597,13.168,28.164,13.168
			c14.566,0,22.103-7.301,28.161-13.169c5.21-5.045,8.651-8.379,16.332-8.379c7.682,0,11.123,3.334,16.334,8.379
			c6.058,5.867,13.597,13.169,28.164,13.169s22.106-7.301,28.164-13.169c5.211-5.045,8.652-8.379,16.334-8.379
			c7.683,0,11.125,3.334,16.336,8.38c6.059,5.867,13.597,13.168,28.164,13.168s22.105-7.301,28.163-13.169
			c5.21-5.045,8.652-8.379,16.333-8.379c4.696,0,8.502-3.806,8.502-8.502s-3.805-8.502-8.502-8.502
			c-14.567,0-22.105,7.301-28.163,13.169c-5.21,5.045-8.652,8.379-16.333,8.379c-7.682,0-11.123-3.334-16.334-8.379
			c-1.113-1.078-2.278-2.205-3.525-3.326C471.482,263.319,495.598,220.084,496.687,218.112z M214.561,205.022
			c-4.442-19.679-10.473-35.533-14.683-45.241c35.888-5.815,67.089-7.565,91.972-5.066l46.248,37.677
			C297.94,194.858,255.7,199.443,214.561,205.022z"/>
	</g>
</g>
<g>
</g>
<g>
</g>
<g>
</g>
<g>
</g>
<g>
</g>
<g>
</g>
<g>
</g>
<g>
</g>
<g>
</g>
<g>
</g>
<g>
</g>
<g>
</g>
<g>
</g>
<g>
</g>
<g>
</g>
</svg>
